<svg xmlns="http://www.w3.org/2000/svg" width="279" viewBox="0 0 279 33" height="33" version="1.0"><g><g><g><path d="M 10.609375 -11.875 L 6.734375 -11.875 L 6.734375 0 L 4.046875 0 L 4.046875 -11.875 L 0.25 -11.875 L 0.25 -13.734375 L 10.609375 -13.734375 Z M 10.609375 -11.875" transform="translate(4.408 23.206)"/></g></g></g><g><g><g><path d="M 12.203125 0 L 9.609375 0 L 9.609375 -6.140625 L 3.84375 -6.140625 L 3.84375 0 L 1.25 0 L 1.25 -12.59375 C 1.25 -12.601562 1.226562 -12.695312 1.1875 -12.875 C 1.144531 -13.050781 1.101562 -13.234375 1.0625 -13.421875 C 1.019531 -13.609375 1 -13.710938 1 -13.734375 L 3.84375 -13.734375 L 3.84375 -8 L 9.609375 -8 L 9.609375 -13.734375 L 12.203125 -13.734375 Z M 12.203125 0" transform="translate(20.89 23.206)"/></g></g></g><g><g><g><path d="M 9.609375 0 L 1.25 0 L 1.25 -12.59375 L 0.96875 -13.734375 L 9.609375 -13.734375 L 9.609375 -11.875 L 3.828125 -11.875 L 3.828125 -8 L 8.25 -8 L 8.25 -6.140625 L 3.828125 -6.140625 L 3.828125 -1.859375 L 9.609375 -1.859375 Z M 9.609375 0" transform="translate(39.926 23.206)"/></g></g></g><g><g><g><path d="M 17.046875 -13.734375 L 13.234375 0.03125 L 10.90625 0.03125 C 10.769531 -0.4375 10.539062 -1.238281 10.21875 -2.375 C 9.894531 -3.507812 9.617188 -4.5 9.390625 -5.34375 C 9.171875 -6.1875 8.96875 -6.992188 8.78125 -7.765625 C 8.601562 -8.515625 8.476562 -9.21875 8.40625 -9.875 C 8.238281 -8.769531 8.023438 -7.738281 7.765625 -6.78125 L 5.90625 0.03125 L 3.515625 0.03125 L -0.265625 -13.734375 L 2.328125 -13.734375 C 3.640625 -8.984375 4.363281 -6.335938 4.5 -5.796875 C 4.664062 -5.117188 4.8125 -4.328125 4.9375 -3.421875 C 5.050781 -4.234375 5.269531 -5.257812 5.59375 -6.5 L 7.5625 -13.734375 L 9.734375 -13.734375 C 9.890625 -13.179688 10.125 -12.351562 10.4375 -11.25 C 10.757812 -10.144531 11.039062 -9.148438 11.28125 -8.265625 C 11.519531 -7.378906 11.738281 -6.546875 11.9375 -5.765625 C 12.082031 -5.148438 12.210938 -4.367188 12.328125 -3.421875 C 12.472656 -4.492188 12.6875 -5.519531 12.96875 -6.5 L 14.953125 -13.734375 Z M 17.046875 -13.734375" transform="translate(65.813 23.206)"/></g></g></g><g><g><g><path d="M 12.203125 0 L 9.609375 0 L 9.609375 -6.140625 L 3.84375 -6.140625 L 3.84375 0 L 1.25 0 L 1.25 -12.59375 C 1.25 -12.601562 1.226562 -12.695312 1.1875 -12.875 C 1.144531 -13.050781 1.101562 -13.234375 1.0625 -13.421875 C 1.019531 -13.609375 1 -13.710938 1 -13.734375 L 3.84375 -13.734375 L 3.84375 -8 L 9.609375 -8 L 9.609375 -13.734375 L 12.203125 -13.734375 Z M 12.203125 0" transform="translate(88.227 23.206)"/></g></g></g><g><g><g><path d="M 3.828125 0 L 1.234375 0 L 1.234375 -12.59375 C 1.234375 -12.601562 1.210938 -12.695312 1.171875 -12.875 C 1.128906 -13.050781 1.082031 -13.234375 1.03125 -13.421875 C 0.988281 -13.609375 0.96875 -13.710938 0.96875 -13.734375 L 3.828125 -13.734375 Z M 3.828125 0" transform="translate(107.263 23.206)"/></g></g></g><g><g><g><path d="M 10.609375 -11.875 L 6.734375 -11.875 L 6.734375 0 L 4.046875 0 L 4.046875 -11.875 L 0.25 -11.875 L 0.25 -13.734375 L 10.609375 -13.734375 Z M 10.609375 -11.875" transform="translate(117.926 23.206)"/></g></g></g><g><g><g><path d="M 9.609375 0 L 1.25 0 L 1.25 -12.59375 L 0.96875 -13.734375 L 9.609375 -13.734375 L 9.609375 -11.875 L 3.828125 -11.875 L 3.828125 -8 L 8.25 -8 L 8.25 -6.140625 L 3.828125 -6.140625 L 3.828125 -1.859375 L 9.609375 -1.859375 Z M 9.609375 0" transform="translate(134.408 23.206)"/></g></g></g><g><g><g><path d="M 10.296875 -9.625 C 10.296875 -8.269531 9.816406 -7.242188 8.859375 -6.546875 C 7.910156 -5.859375 6.738281 -5.515625 5.34375 -5.515625 L 3.8125 -5.515625 L 3.8125 0 L 1.234375 0 L 1.234375 -12.59375 C 1.234375 -12.613281 1.1875 -12.796875 1.09375 -13.140625 C 1.007812 -13.484375 0.960938 -13.679688 0.953125 -13.734375 L 5.3125 -13.734375 C 6.8125 -13.734375 8.015625 -13.410156 8.921875 -12.765625 C 9.835938 -12.117188 10.296875 -11.070312 10.296875 -9.625 Z M 7.5625 -9.625 C 7.5625 -10.320312 7.378906 -10.867188 7.015625 -11.265625 C 6.648438 -11.671875 6.117188 -11.875 5.421875 -11.875 L 3.828125 -11.875 L 3.828125 -7.34375 L 5.40625 -7.34375 C 6.082031 -7.34375 6.609375 -7.550781 6.984375 -7.96875 C 7.367188 -8.382812 7.5625 -8.9375 7.5625 -9.625 Z M 7.5625 -9.625" transform="translate(160.295 23.206)"/></g></g></g><g><g><g><path d="M 9.234375 0 L 1.234375 0 L 1.234375 -12.59375 C 1.234375 -12.601562 1.210938 -12.695312 1.171875 -12.875 C 1.140625 -13.050781 1.101562 -13.234375 1.0625 -13.421875 C 1.019531 -13.609375 1 -13.710938 1 -13.734375 L 3.84375 -13.734375 L 3.84375 -1.859375 L 9.234375 -1.859375 Z M 9.234375 0" transform="translate(176.721 23.206)"/></g></g></g><g><g><g><path d="M 11.796875 0 L 9.03125 0 L 7.671875 -3.9375 L 3.625 -3.9375 L 2.21875 0 L 0.03125 0 L 4.890625 -13.734375 L 6.9375 -13.734375 Z M 7.0625 -5.78125 C 6.457031 -7.613281 5.976562 -9.175781 5.625 -10.46875 C 5.195312 -8.90625 4.742188 -7.34375 4.265625 -5.78125 Z M 7.0625 -5.78125" transform="translate(192.002 23.206)"/></g></g></g><g><g><g><path d="M 12.203125 0.09375 L 10.171875 0.09375 L 4 -9.328125 C 3.570312 -9.992188 3.304688 -10.410156 3.203125 -10.578125 C 3.285156 -9.753906 3.328125 -9.335938 3.328125 -9.328125 L 3.328125 0 L 1.234375 0 L 1.234375 -12.578125 C 1.234375 -12.585938 1.210938 -12.679688 1.171875 -12.859375 C 1.128906 -13.035156 1.082031 -13.21875 1.03125 -13.40625 C 0.988281 -13.59375 0.96875 -13.695312 0.96875 -13.71875 L 4.046875 -13.71875 L 9.453125 -5.5 C 9.640625 -5.21875 9.898438 -4.804688 10.234375 -4.265625 C 10.148438 -5.203125 10.109375 -5.679688 10.109375 -5.703125 L 10.109375 -13.71875 L 12.203125 -13.71875 Z M 12.203125 0.09375" transform="translate(209.48 23.206)"/></g></g></g><g><g><g><path d="M 12.203125 0.09375 L 10.171875 0.09375 L 4 -9.328125 C 3.570312 -9.992188 3.304688 -10.410156 3.203125 -10.578125 C 3.285156 -9.753906 3.328125 -9.335938 3.328125 -9.328125 L 3.328125 0 L 1.234375 0 L 1.234375 -12.578125 C 1.234375 -12.585938 1.210938 -12.679688 1.171875 -12.859375 C 1.128906 -13.035156 1.082031 -13.21875 1.03125 -13.40625 C 0.988281 -13.59375 0.96875 -13.695312 0.96875 -13.71875 L 4.046875 -13.71875 L 9.453125 -5.5 C 9.640625 -5.21875 9.898438 -4.804688 10.234375 -4.265625 C 10.148438 -5.203125 10.109375 -5.679688 10.109375 -5.703125 L 10.109375 -13.71875 L 12.203125 -13.71875 Z M 12.203125 0.09375" transform="translate(228.515 23.206)"/></g></g></g><g><g><g><path d="M 9.609375 0 L 1.25 0 L 1.25 -12.59375 L 0.96875 -13.734375 L 9.609375 -13.734375 L 9.609375 -11.875 L 3.828125 -11.875 L 3.828125 -8 L 8.25 -8 L 8.25 -6.140625 L 3.828125 -6.140625 L 3.828125 -1.859375 L 9.609375 -1.859375 Z M 9.609375 0" transform="translate(247.55 23.206)"/></g></g></g><g><g><g><path d="M 11.578125 0 L 8.65625 0 L 4.84375 -6.125 L 3.8125 -6.125 L 3.8125 0 L 1.234375 0 L 1.234375 -12.59375 C 1.234375 -12.613281 1.1875 -12.796875 1.09375 -13.140625 C 1.007812 -13.484375 0.960938 -13.679688 0.953125 -13.734375 L 5.671875 -13.734375 C 7.054688 -13.734375 8.171875 -13.4375 9.015625 -12.84375 C 9.867188 -12.257812 10.296875 -11.304688 10.296875 -9.984375 C 10.296875 -9.203125 10 -8.472656 9.40625 -7.796875 C 8.820312 -7.128906 8.144531 -6.703125 7.375 -6.515625 Z M 7.578125 -10 C 7.578125 -10.59375 7.367188 -11.050781 6.953125 -11.375 C 6.546875 -11.695312 6.035156 -11.859375 5.421875 -11.859375 L 3.8125 -11.859375 L 3.8125 -7.953125 L 5.015625 -7.953125 C 6.722656 -7.953125 7.578125 -8.632812 7.578125 -10 Z M 7.578125 -10" transform="translate(263.488 23.206)"/></g></g></g></svg>